<?xml version="1.0" encoding="utf-8"?>
<!-- Generator: Adobe Illustrator 22.1.0, SVG Export Plug-In . SVG Version: 6.00 Build 0)  -->
<svg version="1.1" id="Ebene_1" xmlns="http://www.w3.org/2000/svg" xmlns:xlink="http://www.w3.org/1999/xlink" x="0px" y="0px"
	 width="279px" height="94px" viewBox="0 0 279 94" style="enable-background:new 0 0 279 94;" xml:space="preserve">
<style type="text/css">
	.st0{fill:#009E48;}
	.st1{fill:#FFFFFF;}
</style>
<path class="st0" d="M47.1,89.3c24.1,0,43.6-19.5,43.6-43.6C90.7,21.5,71.2,2,47.1,2C23,2,3.5,21.5,3.5,45.6
	C3.5,69.7,23,89.3,47.1,89.3"/>
<path class="st1" d="M51.1,42.7c-0.5,0-0.9-0.5-0.9-1.2c0-0.7,0.4-1.2,0.9-1.2c0.5,0,0.9,0.5,0.9,1.2C52,42.1,51.6,42.7,51.1,42.7
	 M43.4,42.7c-0.5,0-0.9-0.5-0.9-1.2c0-0.7,0.4-1.2,0.9-1.2c0.5,0,0.9,0.5,0.9,1.2C44.3,42.1,43.9,42.7,43.4,42.7 M69.5,62.4
	c-1.4-1.7-5.3-2.4-7.8-2.2c-1.1,0.1-2.4,0.3-3.8,0.7c0-0.2,0-0.3,0-0.5c0-6.3-2-11.7-5-14.8c0.8-0.6,1.3-1.7,1.3-2.9
	c0-1.9-1.3-3.5-2.9-3.5c-1.1,0-2,0.7-2.5,1.7c0.1-1.1,0.3-2.4,0.6-3.5c0.9-2.8,2.7-4.1,3.5-4.1c0.4,0,0.7-0.3,0.7-0.7
	c0-0.4-0.3-0.7-0.7-0.7c-1.6,0-3.8,1.8-4.8,5c-0.7,2.2-0.8,5.4-0.8,6c-0.1,0-0.1,0-0.2,0v0c0,0,0,0,0,0c0-0.5-0.1-3.8-0.9-6
	c-1.2-3.4-3.3-5-4.7-5c-0.4,0-0.7,0.3-0.7,0.7c0,0.4,0.3,0.7,0.7,0.7c0.8,0,2.5,1.1,3.5,4.1c0.3,0.9,0.5,1.9,0.6,2.9
	c-0.5-0.6-1.3-1-2.1-1c-1.6,0-2.9,1.5-2.9,3.4c0,1.2,0.6,2.3,1.4,2.9c-3,3.1-5,8.5-5,14.8c0,0.2,0,0.4,0,0.5
	c-1.4-0.4-2.7-0.7-3.9-0.8c-2.5-0.2-6.4,0.5-7.8,2.2c-1.4,1.7-1.3,6.5-0.5,7c0.7,0.5,0.5-3.1,2.4-4.7c1.9-1.6,6.3-1.1,6.3-1.1
	s-2.6,2-3.8,3.6c-1.2,1.7-2.1,7.8-1.5,7.7c0.6-0.1,1.9-5,3.2-6.2c1.3-1.2,4.3-1.5,4.3-1.5s-2.2,2.2-2.8,4.1
	c-0.6,1.9-2.1,6.2-1.4,6.4c0.6,0.3,2.1-4.7,3.4-6.1c1.1-1,2.5-1.5,3.9-1.8c0.7,1.4,4.1,2.4,8.4,2.5v0l0.4,0c4.4,0,8-1.1,8.7-2.5
	c1.4,0.3,2.7,0.8,3.8,1.8c1.3,1.4,2.8,6.4,3.4,6.1c0.6-0.3-0.8-4.5-1.4-6.4c-0.6-1.9-2.8-4.1-2.8-4.1s2.9,0.2,4.3,1.5
	c1.3,1.2,2.6,6.1,3.2,6.2c0.6,0.1-0.2-6-1.5-7.7c-1.2-1.7-3.8-3.6-3.8-3.6s4.4-0.5,6.3,1.1c1.9,1.6,1.7,5.2,2.4,4.7
	C70.8,68.9,70.9,64.1,69.5,62.4 M60.2,54.2c0,0,0.8,1.6,2.1,1.7c1.3,0.1,6.3-3.1,7.5-4.4c1.2-1.4,1.8-2.4,0.8-3.4
	c-0.9-0.9-3.9-0.3-5.1,0.4C64.4,49.2,60.2,54.2,60.2,54.2 M70.5,46.1c0.9,0.4,2.3-0.3,3.8-1.6c1.5-1.3,1.9-7.3,0.8-8
	c-1.1-0.7-5.9,2.4-6.5,3.8C68.1,41.7,69.6,45.7,70.5,46.1 M66.2,36.4c2.4,0.6,6.2-0.7,7.8-2.8c1.6-2.1,1.1-6.1,0.3-8.2
	c-0.8-2.2-2.6-5.7-5.4-8c-2.8-2.2-8.3-3.7-8.3-3.7s0,2.6,1.6,4.3c1.6,1.7,4.6,2.9,5.6,5.6c2.6,6.7-4,6.9-4.1,7
	c-1.7,0.4-6-6.1-7.4-3.6C57.7,32.9,63.8,35.7,66.2,36.4 M28.6,48.5c-1.2-0.7-4.2-1.4-5.1-0.4c-0.9,1-0.4,2,0.8,3.4
	c1.2,1.4,6.2,4.5,7.5,4.4c1.3-0.1,2.1-1.7,2.1-1.7S29.8,49.2,28.6,48.5 M25.5,40.3c-0.5-1.4-5.4-4.5-6.4-3.8c-1.1,0.7-0.7,6.8,0.8,8
	c1.5,1.3,2.8,2,3.8,1.6C24.6,45.7,26.1,41.7,25.5,40.3 M38,26.4c-1.5-2.3-5.3,4.5-7.1,4.2c-0.2,0-6.8,0.3-4.7-6.6
	c0.9-2.8,3.7-4.2,5.2-6c1.5-1.9,1.3-4.5,1.3-4.5s-5.4,1.9-8,4.3c-2.6,2.5-4.1,6.1-4.7,8.4c-0.6,2.2-0.9,6.2,0.9,8.2
	c1.8,2,5.6,3,8,2.2C31.2,35.7,37,32.4,38,26.4"/>
<path class="st1" d="M47.9,44.3c0,0.8-0.5,1-1.3,1h-0.3v-1.8c0.1,0,0.3-0.1,0.5-0.1C47.3,43.4,47.9,43.6,47.9,44.3 M49.2,48.3
	l-1.7-2.5c0.8-0.1,1.4-0.7,1.4-1.6c0-0.9-0.7-1.6-2-1.6c-0.5,0-1.1,0.1-1.4,0.3v5.3h0.9v-2.4h0.1l1.6,2.4H49.2z M51.1,45.6
	c0,2.2-1.8,4-4,4c-2.2,0-4-1.8-4-4c0-2.2,1.8-4,4-4C49.3,41.6,51.1,43.4,51.1,45.6 M51.9,45.6c0-2.7-2.2-4.8-4.8-4.8
	c-2.7,0-4.8,2.2-4.8,4.8c0,2.7,2.2,4.8,4.8,4.8C49.7,50.5,51.9,48.3,51.9,45.6"/>
<path class="st1" d="M270.4,36.7c-7.6-0.2-11.4,0.6-14.5,2.1v28.4h6.8V41.9c1.6-0.9,4.1-1,6.4-0.2L270.4,36.7z M245,49.3l-12.4,1.9
	c-0.2-7.2,2.6-10.4,6.5-10.4C242.8,40.8,245,43.3,245,49.3 M251.4,52c0.3-10.1-4.1-15.4-12-15.4c-7.9,0-12.8,5.7-12.8,15.5
	c0,10.1,5.4,15.7,13.9,15.7c4.6,0,7.8-0.9,9.9-2.1l-1.6-4.3c-1.6,0.8-4.1,1.7-7.6,1.7c-5,0-7.6-2.8-8.2-8.4L251.4,52z M224.2,67
	v-4.2c-0.6,0.2-1,0.3-1.6,0.3c-2.3,0-3.3-1.6-3.3-3.9V41.5h4.9v-4.4h-4.9v-8.5l-6.8,1.9v6.6h-3.3v4.4h3.3v17.9
	c0,4.2,2.3,8.1,8.3,8.1C222.3,67.6,223.5,67.2,224.2,67 M206.7,58.6c0-3.5-1.3-6.5-7.2-8.9c-2.6-1.1-4.5-2.3-4.5-4.7
	c0-2.1,1.5-4,4.3-4c2.1,0,3.9,0.9,4.8,1.7l1.7-4c-2-1.3-4.5-2.1-7.8-2.1c-5.7,0-9.5,3.9-9.5,8.7c0,3.1,1.2,6.2,6.9,8.4
	c3.1,1.2,4.4,2.4,4.4,5c0,2.5-1.8,4.2-4.6,4.2c-2.5,0-4.5-0.8-5.6-1.7l-1.8,4.3c1.8,1.2,4.8,2.2,8.3,2.2
	C202.6,67.7,206.7,63.5,206.7,58.6 M178.3,51.9c0,7.1-2.2,11.7-7.5,11.7c-1.3,0-2.6-0.2-3.5-0.6V41.6c1.1-0.6,2.2-0.9,4.1-0.9
	C176.5,40.8,178.3,45.7,178.3,51.9 M185.1,51.5c0-9-4.9-14.7-11.8-14.7c-2.8,0-4.5,0.6-5.9,1.2V23.5h-6.7v42.2
	c1.9,1.2,5.3,2.2,9.9,2.2C179.9,67.8,185.1,61.6,185.1,51.5 M149.4,52.2c0,5.7-0.9,11-5.7,11c-4.7,0-5.7-5.3-5.7-11
	c0-5.7,0.9-11.3,5.7-11.3C148.5,40.9,149.4,46.4,149.4,52.2 M156.1,52.2c0-9-4-15.6-12.5-15.6c-8.4,0-12.5,6.6-12.5,15.6
	c0,8.9,4.1,15.6,12.5,15.6C152.1,67.8,156.1,61.1,156.1,52.2 M129.1,67.2v-4.7h-10.6V28.9h-7.1v38.4H129.1z"/>
</svg>
