<?xml version="1.0" encoding="UTF-8" standalone="no"?>
<svg
   xmlns:dc="http://purl.org/dc/elements/1.1/"
   xmlns:cc="http://creativecommons.org/ns#"
   xmlns:rdf="http://www.w3.org/1999/02/22-rdf-syntax-ns#"
   xmlns:svg="http://www.w3.org/2000/svg"
   xmlns="http://www.w3.org/2000/svg"
   xmlns:sodipodi="http://sodipodi.sourceforge.net/DTD/sodipodi-0.dtd"
   xmlns:inkscape="http://www.inkscape.org/namespaces/inkscape"
   width="345mm"
   height="194mm"
   viewBox="0 0 345 194"
   version="1.1"
   id="svg8"
   inkscape:version="1.0.2-2 (e86c870879, 2021-01-15)"
   sodipodi:docname="logo-100.svg">
  <defs
     id="defs2">
    <inkscape:path-effect
       effect="offset"
       id="path-effect896"
       is_visible="true"
       lpeversion="1"
       linejoin_type="miter"
       unit="mm"
       offset="3.2"
       miter_limit="4"
       attempt_force_join="true"
       update_on_knot_move="true" />
    <inkscape:path-effect
       effect="offset"
       id="path-effect891"
       is_visible="true"
       lpeversion="1"
       linejoin_type="miter"
       unit="mm"
       offset="1.5"
       miter_limit="4"
       attempt_force_join="true"
       update_on_knot_move="true" />
    <inkscape:path-effect
       effect="offset"
       id="path-effect884"
       is_visible="true"
       lpeversion="1"
       linejoin_type="miter"
       unit="mm"
       offset="-6"
       miter_limit="4"
       attempt_force_join="true"
       update_on_knot_move="true" />
    <inkscape:path-effect
       effect="offset"
       id="path-effect878"
       is_visible="true"
       lpeversion="1"
       linejoin_type="miter"
       unit="mm"
       offset="4.8"
       miter_limit="4"
       attempt_force_join="true"
       update_on_knot_move="true" />
    <inkscape:path-effect
       effect="offset"
       id="path-effect888"
       is_visible="true"
       lpeversion="1"
       linejoin_type="miter"
       unit="mm"
       offset="1.5"
       miter_limit="4"
       attempt_force_join="true"
       update_on_knot_move="true" />
    <inkscape:path-effect
       effect="offset"
       id="path-effect883"
       is_visible="true"
       lpeversion="1"
       linejoin_type="miter"
       unit="mm"
       offset="0.9"
       miter_limit="4"
       attempt_force_join="true"
       update_on_knot_move="true" />
    <inkscape:path-effect
       effect="offset"
       id="path-effect865"
       is_visible="true"
       lpeversion="1"
       linejoin_type="miter"
       unit="mm"
       offset="1.5"
       miter_limit="4"
       attempt_force_join="true"
       update_on_knot_move="true" />
    <inkscape:path-effect
       effect="offset"
       id="path-effect861"
       is_visible="true"
       lpeversion="1"
       linejoin_type="miter"
       unit="mm"
       offset="0"
       miter_limit="4"
       attempt_force_join="true"
       update_on_knot_move="true" />
    <inkscape:path-effect
       effect="offset"
       id="path-effect850"
       is_visible="true"
       lpeversion="1"
       linejoin_type="miter"
       unit="mm"
       offset="1.5"
       miter_limit="4"
       attempt_force_join="true"
       update_on_knot_move="true" />
  </defs>
  <sodipodi:namedview
     id="base"
     pagecolor="#ffffff"
     bordercolor="#666666"
     borderopacity="1.0"
     inkscape:pageopacity="0.0"
     inkscape:pageshadow="2"
     inkscape:zoom="0.98994949"
     inkscape:cx="683.55575"
     inkscape:cy="342.50931"
     inkscape:document-units="mm"
     inkscape:current-layer="layer1"
     inkscape:document-rotation="0"
     showgrid="false"
     inkscape:window-width="1920"
     inkscape:window-height="1001"
     inkscape:window-x="-9"
     inkscape:window-y="-9"
     inkscape:window-maximized="1" />
  <metadata
     id="metadata5">
    <rdf:RDF>
      <cc:Work
         rdf:about="">
        <dc:format>image/svg+xml</dc:format>
        <dc:type
           rdf:resource="http://purl.org/dc/dcmitype/StillImage" />
        <dc:title />
      </cc:Work>
    </rdf:RDF>
  </metadata>
  <g
     inkscape:label="Layer 1"
     inkscape:groupmode="layer"
     id="layer1">
    <path
       id="path833"
       style="fill:#214478;fill-opacity:1;fill-rule:evenodd;stroke:none;stroke-width:1.88976;stroke-linecap:round;stroke-linejoin:round"
       d="m 703.32227,368.57227 a 135,81.428572 0 0 0 -79.8086,15.86523 c 1.51902,2.53254 3.21329,5.04976 5.08594,7.54297 13.12833,-8.53284 31.89477,-13.94063 53.07227,-14.02149 16.28995,-0.0622 34.00394,3.02753 51.66992,10.26954 53.39818,21.88996 82.34838,64.105 69.71289,95.83984 -12.21763,30.68557 -70.76425,49.91337 -124.06836,26.85156 -38.22889,-16.53956 -62.8558,-43.86624 -69.08985,-70.11328 -12.03761,-6.61233 -22.23887,-14.5115 -30.03906,-23.39648 A 135,81.428572 0 0 0 568.57227,450 a 135,81.428572 0 0 0 135,81.42773 135,81.428572 0 0 0 135,-81.42773 135,81.428572 0 0 0 -135,-81.42773 135,81.428572 0 0 0 -0.25,0 z"
       transform="scale(0.26458333)"
       inkscape:path-effect="#path-effect861"
       inkscape:original-d="M 703.32227 368.57227 A 135 81.428572 0 0 0 623.51367 384.4375 C 625.03269 386.97004 626.72696 389.48726 628.59961 391.98047 C 641.72794 383.44763 660.49438 378.03984 681.67188 377.95898 C 697.96183 377.89679 715.67582 380.98651 733.3418 388.22852 C 786.73998 410.11848 815.69018 452.33352 803.05469 484.06836 C 790.83706 514.75393 732.29044 533.98173 678.98633 510.91992 C 640.75744 494.38036 616.13053 467.05368 609.89648 440.80664 C 597.85887 434.19431 587.65761 426.29514 579.85742 417.41016 A 135 81.428572 0 0 0 568.57227 450 A 135 81.428572 0 0 0 703.57227 531.42773 A 135 81.428572 0 0 0 838.57227 450 A 135 81.428572 0 0 0 703.57227 368.57227 A 135 81.428572 0 0 0 703.32227 368.57227 z " />
    <ellipse
       style="fill:#000000;fill-opacity:0.164706;fill-rule:evenodd;stroke:#ffffff;stroke-width:0.499999;stroke-linecap:round;stroke-linejoin:round"
       id="ellipse839"
       cx="-73.265076"
       cy="17.689068"
       rx="35.71875"
       ry="21.544643" />
    <path
       id="path841"
       style="fill:#000000;fill-opacity:0.164706;fill-rule:evenodd;stroke:none;stroke-width:0.379769;stroke-linecap:round;stroke-linejoin:round"
       d="m -46.943383,26.703169 c -3.23258,8.11889 -18.723129,13.20615 -32.826509,7.10438 -13.75153,-5.94954 -20.862648,-17.17471 -18.11601,-25.7848296 2.45288,-7.68924004 17.54064,-12.808955 32.49783,-6.67739 14.128269,5.79172 21.787829,16.9613296 18.444689,25.3578396 z"
       sodipodi:nodetypes="sssss" />
    <path
       id="path844"
       style="fill:#214478;fill-opacity:1;fill-rule:evenodd;stroke:none;stroke-width:1.88976;stroke-linecap:round;stroke-linejoin:round"
       d="M 703.32227 294.28711 A 135 81.428572 0 0 0 568.57227 375.71484 A 135 81.428572 0 0 0 703.57227 457.14258 A 135 81.428572 0 0 0 790.04102 438.24609 C 788.45098 435.83033 786.68115 433.42802 784.73828 431.05078 C 760.40334 447.65406 718.27301 453.63199 678.98633 436.63477 C 627.01204 414.14832 600.13462 371.72188 610.51562 339.17969 C 616.88923 319.19978 645.83394 303.81066 681.67188 303.67383 C 697.96183 303.61162 715.67579 306.70135 733.3418 313.94336 C 776.21739 331.51972 803.3247 362.19794 805.80469 390.03516 C 814.16676 395.47794 821.41715 401.60384 827.29297 408.29492 A 135 81.428572 0 0 0 838.57227 375.71484 A 135 81.428572 0 0 0 703.57227 294.28711 A 135 81.428572 0 0 0 703.32227 294.28711 z "
       transform="scale(0.26458333)" />
    <path
       id="path846"
       style="fill:#214478;fill-opacity:1;fill-rule:evenodd;stroke:none;stroke-width:0.499999;stroke-linecap:round;stroke-linejoin:round"
       d="m 186.08735,29.671353 a 35.71875,21.544643 0 0 0 -35.65261,21.54442 35.71875,21.544643 0 0 0 35.71875,21.544423 35.71875,21.544643 0 0 0 35.71875,-21.544423 35.71875,21.544643 0 0 0 -35.71875,-21.54442 35.71875,21.544643 0 0 0 -0.0661,0 z m -5.72833,2.483567 c 4.31005,-0.01646 8.99687,0.801034 13.671,2.717149 14.12826,5.791718 21.788,16.961117 18.44486,25.357627 -3.23258,8.11889 -18.72304,13.20624 -32.82642,7.10447 -13.75153,-5.94954 -20.86284,-17.174867 -18.1162,-25.784988 1.68635,-5.286351 9.34464,-9.358055 18.82676,-9.394258 z" />
    <ellipse
       style="fill:#000000;fill-opacity:0.164706;fill-rule:evenodd;stroke:none;stroke-width:0.499999;stroke-linecap:round;stroke-linejoin:round"
       id="ellipse871"
       cx="-73.265076"
       cy="85.91378"
       rx="35.71875"
       ry="21.544643" />
    <ellipse
       style="fill:#000000;fill-opacity:0.164706;fill-rule:evenodd;stroke:none;stroke-width:0.409953;stroke-linecap:round;stroke-linejoin:round"
       id="ellipse873"
       cx="-73.457047"
       cy="86.046059"
       rx="25.926182"
       ry="19.953871" />
    <path
       id="path875"
       style="fill:#214478;fill-opacity:1;fill-rule:evenodd;stroke:none;stroke-width:0.499999;stroke-linecap:round;stroke-linejoin:round"
       d="m 283.60521,32.317188 a 35.71875,21.544643 0 0 0 -35.65261,21.54442 35.71875,21.544643 0 0 0 35.71875,21.544423 35.71875,21.544643 0 0 0 35.71875,-21.544423 35.71875,21.544643 0 0 0 -35.71875,-21.54442 35.71875,21.544643 0 0 0 -0.0661,0 z m -5.72833,2.483567 c 4.31005,-0.01646 8.99687,0.801034 13.671,2.717149 14.12826,5.791718 21.788,16.961117 18.44486,25.357627 -3.23258,8.11889 -18.72304,13.20624 -32.82642,7.10447 -13.75153,-5.94954 -20.86284,-17.174867 -18.1162,-25.784988 1.68635,-5.286351 9.34464,-9.358055 18.82676,-9.394258 z" />
    <path
       id="path877"
       style="fill:#ff8080;fill-opacity:1;fill-rule:evenodd;stroke:none;stroke-width:0.499999;stroke-linecap:round;stroke-linejoin:round"
       d="m 283.60521,78.505879 a 35.71875,21.544643 0 0 0 -35.65261,21.544421 35.71875,21.544643 0 0 0 35.71875,21.54445 35.71875,21.544643 0 0 0 35.71875,-21.54445 35.71875,21.544643 0 0 0 -35.71875,-21.544421 35.71875,21.544643 0 0 0 -0.0661,0 z m -5.72833,2.483567 c 4.31005,-0.01646 8.99687,0.801034 13.671,2.717149 14.12826,5.791718 21.788,16.961115 18.44486,25.357655 -3.23258,8.11889 -18.72304,13.20624 -32.82642,7.10447 -13.75153,-5.94954 -20.86284,-17.174895 -18.1162,-25.785016 1.68635,-5.286351 9.34464,-9.358055 18.82676,-9.394258 z" />
    <path
       id="path879"
       style="fill:#214478;fill-opacity:1;fill-rule:evenodd;stroke:none;stroke-width:1.88976;stroke-linecap:round;stroke-linejoin:round"
       d="M 1071.8945 362.14453 A 135 81.428572 0 0 0 988.28516 379.75781 C 989.63997 382.67068 991.22364 385.58286 993.04883 388.47461 C 1006.2002 378.27137 1026.7399 371.62098 1050.2441 371.53125 C 1066.5341 371.46889 1084.2481 374.55876 1101.9141 381.80078 C 1126.474 391.86887 1145.8418 406.24002 1158.3906 421.91016 C 1161.9849 418.24486 1164.6987 414.27143 1166.3535 410.11523 C 1169.3012 402.71191 1169.5838 394.44728 1167.459 385.9082 A 135 81.428572 0 0 0 1072.1445 362.14453 A 135 81.428572 0 0 0 1071.8945 362.14453 z M 945.17383 415.91016 A 135 81.428572 0 0 0 937.14453 443.57227 A 135 81.428572 0 0 0 1072.1445 525 A 135 81.428572 0 0 0 1207.1445 443.57227 A 135 81.428572 0 0 0 1199.1172 415.91211 C 1191.8257 425.34539 1181.8859 433.77349 1169.9434 440.88086 C 1175.3158 453.53447 1176.1576 466.26173 1171.627 477.64062 C 1159.4093 508.32619 1100.8627 527.554 1047.5586 504.49219 C 1014.5328 490.20371 991.66054 467.86386 982.02148 445.125 C 966.63594 437.22231 953.97587 427.29844 945.17383 415.91016 z "
       transform="scale(0.26458333)" />
    <path
       id="ellipse880"
       style="fill:#214478;fill-opacity:1;fill-rule:evenodd;stroke:none;stroke-width:1.88976;stroke-linecap:round;stroke-linejoin:round"
       d="M 256.20508 382.68555 A 135 81.428572 0 0 0 164.66797 404.40234 C 167.61471 411.78335 173.21634 418.70714 180.91992 424.74219 A 99.830744 60.215369 0 0 1 256.45312 403.89844 A 99.830744 60.215369 0 0 1 331.98828 424.74219 C 339.69131 418.70753 345.29334 411.78483 348.24023 404.4043 A 135 81.428572 0 0 0 256.45312 382.68555 A 135 81.428572 0 0 0 256.20508 382.68555 z M 131.73438 432.94531 A 135 81.428572 0 0 0 121.45312 464.11328 A 135 81.428572 0 0 0 256.45312 545.54297 A 135 81.428572 0 0 0 391.45312 464.11328 A 135 81.428572 0 0 0 381.17188 432.94727 C 374.30997 441.05432 365.45645 448.36256 355.04492 454.65625 A 99.830744 60.215369 0 0 1 356.28516 464.11328 A 99.830744 60.215369 0 0 1 256.45312 524.33008 A 99.830744 60.215369 0 0 1 156.62305 464.11328 A 99.830744 60.215369 0 0 1 157.86133 454.65625 C 147.44952 448.36221 138.59621 441.05282 131.73438 432.94531 z "
       transform="scale(0.26458333)" />
    <path
       id="path885"
       style="fill:#214478;fill-opacity:0.54509807;fill-rule:evenodd;stroke:none;stroke-width:0.499999;stroke-linecap:round;stroke-linejoin:round"
       d="m 67.787407,82.276214 a 35.71875,21.544643 0 0 0 -35.65312,21.544416 35.71875,21.544643 0 0 0 35.71875,21.54494 35.71875,21.544643 0 0 0 35.718753,-21.54494 35.71875,21.544643 0 0 0 -35.718753,-21.544416 35.71875,21.544643 0 0 0 -0.06563,0 z m 0.06563,5.61258 A 26.413551,15.931983 0 0 1 94.266928,103.82063 26.413551,15.931983 0 0 1 67.853037,119.75299 26.413551,15.931983 0 0 1 41.439662,103.82063 26.413551,15.931983 0 0 1 67.853037,87.888794 Z" />
    <path
       id="path887"
       style="fill:#214478;fill-opacity:1;fill-rule:evenodd;stroke:none;stroke-width:0.499999;stroke-linecap:round;stroke-linejoin:round"
       d="m 67.787407,34.702238 a 35.71875,21.544643 0 0 0 -35.65312,21.544416 35.71875,21.544643 0 0 0 35.71875,21.54494 35.71875,21.544643 0 0 0 35.718753,-21.54494 35.71875,21.544643 0 0 0 -35.718753,-21.544416 35.71875,21.544643 0 0 0 -0.06563,0 z m 0.06563,5.61258 A 26.413551,15.931983 0 0 1 94.266928,56.246654 26.413551,15.931983 0 0 1 67.853037,72.179014 26.413551,15.931983 0 0 1 41.439662,56.246654 26.413551,15.931983 0 0 1 67.853037,40.314818 Z" />
    <path
       id="path894"
       style="fill:#214478;fill-opacity:1;fill-rule:evenodd;stroke:none;stroke-width:0.499999;stroke-linecap:round;stroke-linejoin:round"
       d="m 67.783203,79.076172 c -20.612829,0.02284 -38.847445,10.355294 -38.847656,24.744138 -3.29e-4,14.4077 18.278107,24.74414 38.917969,24.74414 20.639864,1e-5 38.918294,-10.33645 38.917964,-24.74414 C 106.77123,89.412863 88.493075,79.076171 67.853516,79.076172 Z m 0.07031,12.011719 c 13.675118,-1.06e-4 23.214748,6.442157 23.214843,12.732419 2.47e-4,6.29035 -9.539577,12.73448 -23.214843,12.73438 -13.675066,-6e-5 -23.215091,-6.44415 -23.214844,-12.73438 9.6e-5,-6.289987 9.539902,-12.732364 23.214844,-12.732419 z"
       inkscape:original-d="m 67.787407,82.276214 a 35.71875,21.544643 0 0 0 -35.65312,21.544416 35.71875,21.544643 0 0 0 35.71875,21.54494 35.71875,21.544643 0 0 0 35.718753,-21.54494 35.71875,21.544643 0 0 0 -35.718753,-21.544416 35.71875,21.544643 0 0 0 -0.06563,0 z m 0.06563,5.61258 A 26.413551,15.931983 0 0 1 94.266928,103.82063 26.413551,15.931983 0 0 1 67.853037,119.75299 26.413551,15.931983 0 0 1 41.439662,103.82063 26.413551,15.931983 0 0 1 67.853037,87.888794 Z"
       inkscape:path-effect="#path-effect896" />
  </g>
</svg>
